<svg id="Capa_1" enable-background="new 0 0 512 512" height="512" viewBox="0 0 512 512" width="512" xmlns="http://www.w3.org/2000/svg"><g><path d="m512 65.146h-512v330h80.729l-19.146 38.292 26.833 13.416 25.854-51.708h283.459l25.854 51.708 26.833-13.416-19.146-38.292h80.73zm-30 300h-452v-270h452z"/><path d="m102.457 271.475-22.31 22.311 21.213 21.213 22.31-22.311c7.869 5.217 16.768 9 26.329 10.948v31.509h30v-31.509c9.561-1.949 18.46-5.731 26.329-10.948l22.31 22.311 21.213-21.213-22.31-22.311c5.217-7.869 9-16.768 10.948-26.329h31.511v-30h-31.509c-1.949-9.562-5.731-18.46-10.948-26.329l22.31-22.311-21.213-21.213-22.31 22.311c-7.869-5.217-16.768-9-26.329-10.948v-31.509h-30v31.509c-9.561 1.949-18.46 5.731-26.329 10.948l-22.31-22.311-21.213 21.213 22.31 22.311c-5.217 7.869-9 16.768-10.948 26.329h-31.511v30h31.509c1.949 9.562 5.731 18.46 10.948 26.329zm17.543-41.329c0-24.813 20.187-45 45-45s45 20.187 45 45-20.187 45-45 45-45-20.187-45-45z"/><path d="m392 230.146h30v-30h30v-30h-30v-30h-30v30h-90v30h90z"/><path d="m332 320.146h30v-30h90v-30h-90v-30h-30v30h-30v30h30z"/><path d="m150 215.146h30v30h-30z" transform="matrix(.707 -.707 .707 .707 -114.41 184.081)"/></g></svg>